G04 start of page 6 for group -4063 idx -4063 *
G04 Title: (unknown), componentmask *
G04 Creator: pcb 20110918 *
G04 CreationDate: Mon 17 Jun 2013 02:04:58 PM GMT UTC *
G04 For: commonadmin *
G04 Format: Gerber/RS-274X *
G04 PCB-Dimensions: 600000 500000 *
G04 PCB-Coordinate-Origin: lower left *
%MOIN*%
%FSLAX25Y25*%
%LNTOPMASK*%
%ADD40C,0.0560*%
%ADD39C,0.0660*%
%ADD38C,0.0780*%
%ADD37C,0.0610*%
%ADD36C,0.0001*%
G54D36*G36*
X186950Y23050D02*Y16950D01*
X193050D01*
Y23050D01*
X186950D01*
G37*
G54D37*X180000Y20000D03*
X190000Y50000D03*
G54D36*G36*
X176950Y63050D02*Y56950D01*
X183050D01*
Y63050D01*
X176950D01*
G37*
G36*
X221100Y23900D02*Y16100D01*
X228900D01*
Y23900D01*
X221100D01*
G37*
G54D38*X225000Y30000D03*
Y40000D03*
G54D36*G36*
X256700Y33300D02*Y26700D01*
X263300D01*
Y33300D01*
X256700D01*
G37*
G54D39*X260000Y40000D03*
G54D36*G36*
X201700Y58300D02*Y51700D01*
X208300D01*
Y58300D01*
X201700D01*
G37*
G54D39*X205000Y45000D03*
G54D36*G36*
X239200Y58300D02*Y51700D01*
X245800D01*
Y58300D01*
X239200D01*
G37*
G54D39*X242500Y45000D03*
G54D36*G36*
X76700Y33300D02*Y26700D01*
X83300D01*
Y33300D01*
X76700D01*
G37*
G54D39*X80000Y40000D03*
G54D37*X100000Y50000D03*
G54D36*G36*
X26700Y33300D02*Y26700D01*
X33300D01*
Y33300D01*
X26700D01*
G37*
G54D39*X30000Y40000D03*
G54D37*X160000D03*
G54D36*G36*
X147200Y32800D02*Y27200D01*
X152800D01*
Y32800D01*
X147200D01*
G37*
G36*
X96950Y23050D02*Y16950D01*
X103050D01*
Y23050D01*
X96950D01*
G37*
G36*
X116950Y43050D02*Y36950D01*
X123050D01*
Y43050D01*
X116950D01*
G37*
G36*
X107200Y52800D02*Y47200D01*
X112800D01*
Y52800D01*
X107200D01*
G37*
G54D40*X110000Y20000D03*
X120000Y30000D03*
M02*
