G04 start of page 8 for group -4079 idx -4079 *
G04 Title: (unknown), topsilk *
G04 Creator: pcb 20110918 *
G04 CreationDate: Sat 01 Jun 2013 09:41:12 PM GMT UTC *
G04 For: commonadmin *
G04 Format: Gerber/RS-274X *
G04 PCB-Dimensions: 600000 500000 *
G04 PCB-Coordinate-Origin: lower left *
%MOIN*%
%FSLAX25Y25*%
%LNTOPSILK*%
%ADD45C,0.0100*%
G54D45*X150000Y30000D02*Y20000D01*
Y60000D02*Y50000D01*
X146700D02*Y30000D01*
Y50000D02*X153300D01*
Y30000D01*
X146700D02*X153300D01*
X225000Y25000D02*X235000D01*
Y45000D02*Y25000D01*
X225000Y45000D02*X235000D01*
X225000D02*Y25000D01*
X235000Y35000D02*Y25000D01*
X225000Y35000D02*X235000D01*
X210000Y30000D02*Y20000D01*
Y60000D02*Y50000D01*
X206700D02*Y30000D01*
Y50000D02*X213300D01*
Y30000D01*
X206700D02*X213300D01*
X197000Y37000D02*Y23000D01*
X197071Y37071D02*G75*G03X197071Y22929I-7071J-7071D01*G01*
X170000Y30000D02*Y20000D01*
Y60000D02*Y50000D01*
X166700D02*Y30000D01*
Y50000D02*X173300D01*
Y30000D01*
X166700D02*X173300D01*
X75000Y25000D02*X85000D01*
Y45000D02*Y25000D01*
X75000Y45000D02*X85000D01*
X75000D02*Y25000D01*
X85000Y35000D02*Y25000D01*
X75000Y35000D02*X85000D01*
X25000Y25000D02*X35000D01*
Y45000D02*Y25000D01*
X25000Y45000D02*X35000D01*
X25000D02*Y25000D01*
X35000Y35000D02*Y25000D01*
X25000Y35000D02*X35000D01*
X126700Y50000D02*X140000D01*
X100000D02*X113300D01*
X126700D02*X113300Y43400D01*
Y56600D02*Y43400D01*
Y56600D02*X126700Y50000D01*
Y56600D02*Y43400D01*
X100000Y30000D02*X110000D01*
X130000D02*X140000D01*
X110000Y33300D02*X130000D01*
Y26700D01*
X110000D02*X130000D01*
X110000Y33300D02*Y26700D01*
X156300Y54000D02*Y52000D01*
Y54000D02*X156800Y54500D01*
X157800D01*
X158300Y54000D02*X157800Y54500D01*
X158300Y54000D02*Y52500D01*
X156300D02*X160300D01*
X158300Y53300D02*X160300Y54500D01*
X157100Y55700D02*X156300Y56500D01*
X160300D01*
Y57200D02*Y55700D01*
X225700Y46000D02*X227000D01*
X225000Y46700D02*X225700Y46000D01*
X225000Y49300D02*Y46700D01*
Y49300D02*X225700Y50000D01*
X227000D01*
X228200Y49500D02*Y46500D01*
Y49500D02*X228700Y50000D01*
X229700D01*
X230200Y49500D01*
Y46500D01*
X229700Y46000D02*X230200Y46500D01*
X228700Y46000D02*X229700D01*
X228200Y46500D02*X228700Y46000D01*
X231400Y50000D02*Y46000D01*
Y50000D02*X233900Y46000D01*
Y50000D02*Y46000D01*
X235100Y50000D02*Y46000D01*
Y50000D02*X237600Y46000D01*
Y50000D02*Y46000D01*
X238800Y49500D02*X239300Y50000D01*
X240300D01*
X240800Y49500D01*
X240300Y46000D02*X240800Y46500D01*
X239300Y46000D02*X240300D01*
X238800Y46500D02*X239300Y46000D01*
Y48200D02*X240300D01*
X240800Y49500D02*Y48700D01*
Y47700D02*Y46500D01*
Y47700D02*X240300Y48200D01*
X240800Y48700D02*X240300Y48200D01*
X220300Y54000D02*Y52700D01*
X219600Y52000D02*X220300Y52700D01*
X217000Y52000D02*X219600D01*
X217000D02*X216300Y52700D01*
Y54000D02*Y52700D01*
X216800Y55200D02*X216300Y55700D01*
Y56700D02*Y55700D01*
Y56700D02*X216800Y57200D01*
X220300Y56700D02*X219800Y57200D01*
X220300Y56700D02*Y55700D01*
X219800Y55200D02*X220300Y55700D01*
X218100Y56700D02*Y55700D01*
X216800Y57200D02*X217600D01*
X218600D02*X219800D01*
X218600D02*X218100Y56700D01*
X217600Y57200D02*X218100Y56700D01*
X198500Y39000D02*X201500D01*
X202000Y38500D01*
Y37500D01*
X201500Y37000D01*
X199000D02*X201500D01*
X198000Y38000D02*X199000Y37000D01*
X198000Y38500D02*Y38000D01*
X198500Y39000D02*X198000Y38500D01*
X199500Y38000D02*X198000Y37000D01*
X201200Y35800D02*X202000Y35000D01*
X198000D02*X202000D01*
X198000Y35800D02*Y34300D01*
X180300Y54000D02*Y52700D01*
X179600Y52000D02*X180300Y52700D01*
X177000Y52000D02*X179600D01*
X177000D02*X176300Y52700D01*
Y54000D02*Y52700D01*
X176800Y55200D02*X176300Y55700D01*
Y57200D02*Y55700D01*
Y57200D02*X176800Y57700D01*
X177800D01*
X180300Y55200D02*X177800Y57700D01*
X180300D02*Y55200D01*
X75700Y46000D02*X77000D01*
X75000Y46700D02*X75700Y46000D01*
X75000Y49300D02*Y46700D01*
Y49300D02*X75700Y50000D01*
X77000D01*
X78200Y49500D02*Y46500D01*
Y49500D02*X78700Y50000D01*
X79700D01*
X80200Y49500D01*
Y46500D01*
X79700Y46000D02*X80200Y46500D01*
X78700Y46000D02*X79700D01*
X78200Y46500D02*X78700Y46000D01*
X81400Y50000D02*Y46000D01*
Y50000D02*X83900Y46000D01*
Y50000D02*Y46000D01*
X85100Y50000D02*Y46000D01*
Y50000D02*X87600Y46000D01*
Y50000D02*Y46000D01*
X88800Y49500D02*X89300Y50000D01*
X90800D01*
X91300Y49500D01*
Y48500D01*
X88800Y46000D02*X91300Y48500D01*
X88800Y46000D02*X91300D01*
X25700D02*X27000D01*
X25000Y46700D02*X25700Y46000D01*
X25000Y49300D02*Y46700D01*
Y49300D02*X25700Y50000D01*
X27000D01*
X28200Y49500D02*Y46500D01*
Y49500D02*X28700Y50000D01*
X29700D01*
X30200Y49500D01*
Y46500D01*
X29700Y46000D02*X30200Y46500D01*
X28700Y46000D02*X29700D01*
X28200Y46500D02*X28700Y46000D01*
X31400Y50000D02*Y46000D01*
Y50000D02*X33900Y46000D01*
Y50000D02*Y46000D01*
X35100Y50000D02*Y46000D01*
Y50000D02*X37600Y46000D01*
Y50000D02*Y46000D01*
X38800Y49200D02*X39600Y50000D01*
Y46000D01*
X38800D02*X40300D01*
X110800Y48400D02*Y44400D01*
X109500D02*X108800Y45100D01*
Y47700D02*Y45100D01*
X109500Y48400D02*X108800Y47700D01*
X109500Y48400D02*X111300D01*
X109500Y44400D02*X111300D01*
X107600Y45200D02*X106800Y44400D01*
Y48400D02*Y44400D01*
X106100Y48400D02*X107600D01*
X132700Y19700D02*X134000D01*
X132000Y20400D02*X132700Y19700D01*
X132000Y23000D02*Y20400D01*
Y23000D02*X132700Y23700D01*
X134000D01*
X135200Y22900D02*X136000Y23700D01*
Y19700D01*
X135200D02*X136700D01*
M02*
