G04 start of page 7 for group -4062 idx -4062 *
G04 Title: (unknown), soldermask *
G04 Creator: pcb 20110918 *
G04 CreationDate: Sat 01 Jun 2013 08:01:24 PM GMT UTC *
G04 For: commonadmin *
G04 Format: Gerber/RS-274X *
G04 PCB-Dimensions: 600000 500000 *
G04 PCB-Coordinate-Origin: lower left *
%MOIN*%
%FSLAX25Y25*%
%LNBOTTOMMASK*%
%ADD44C,0.0780*%
%ADD43C,0.0560*%
%ADD42C,0.0660*%
%ADD41C,0.0610*%
%ADD40C,0.0001*%
G54D40*G36*
X146950Y23050D02*Y16950D01*
X153050D01*
Y23050D01*
X146950D01*
G37*
G54D41*X150000Y60000D03*
G54D40*G36*
X137200Y52800D02*Y47200D01*
X142800D01*
Y52800D01*
X137200D01*
G37*
G54D41*X140000Y30000D03*
G54D40*G36*
X76700Y33300D02*Y26700D01*
X83300D01*
Y33300D01*
X76700D01*
G37*
G54D42*X80000Y40000D03*
G54D40*G36*
X26700Y33300D02*Y26700D01*
X33300D01*
Y33300D01*
X26700D01*
G37*
G54D42*X30000Y40000D03*
G54D43*X100000Y50000D03*
G54D40*G36*
X96950Y33050D02*Y26950D01*
X103050D01*
Y33050D01*
X96950D01*
G37*
G36*
X186100Y23900D02*Y16100D01*
X193900D01*
Y23900D01*
X186100D01*
G37*
G36*
X226700Y33300D02*Y26700D01*
X233300D01*
Y33300D01*
X226700D01*
G37*
G54D42*X230000Y40000D03*
G54D40*G36*
X206950Y23050D02*Y16950D01*
X213050D01*
Y23050D01*
X206950D01*
G37*
G54D41*X210000Y60000D03*
G54D44*X190000Y30000D03*
Y40000D03*
G54D40*G36*
X166950Y23050D02*Y16950D01*
X173050D01*
Y23050D01*
X166950D01*
G37*
G54D41*X170000Y60000D03*
M02*
