G04 start of page 2 for group 0 idx 0 *
G04 Title: (unknown), component *
G04 Creator: pcb 20110918 *
G04 CreationDate: Mon 17 Jun 2013 02:04:58 PM GMT UTC *
G04 For: commonadmin *
G04 Format: Gerber/RS-274X *
G04 PCB-Dimensions: 600000 500000 *
G04 PCB-Coordinate-Origin: lower left *
%MOIN*%
%FSLAX25Y25*%
%LNTOP*%
%ADD21C,0.0200*%
%ADD20C,0.0380*%
%ADD19C,0.0420*%
%ADD18C,0.0300*%
%ADD17C,0.0500*%
%ADD16C,0.0600*%
%ADD15C,0.0720*%
%ADD14C,0.0550*%
%ADD13C,0.0001*%
%ADD12C,0.0100*%
%ADD11C,0.0250*%
G54D11*X180000Y60000D02*X190000Y50000D01*
X170000D02*X180000Y60000D01*
X195000Y55000D02*X190000Y50000D01*
X170000Y40000D02*Y50000D01*
X160000Y30000D02*X170000Y40000D01*
X150000Y30000D02*X160000D01*
X150000Y50000D02*X160000Y40000D01*
X195000Y55000D02*X210000D01*
X205000Y45000D02*X200000Y40000D01*
X205000Y45000D02*X210000Y40000D01*
X200000D02*Y30000D01*
X210000D02*Y40000D01*
X80000Y30000D02*X90000Y20000D01*
X120000Y40000D02*Y30000D01*
X110000Y50000D02*X120000Y40000D01*
X80000D02*X90000Y50000D01*
X120000D02*X150000D01*
X90000D02*X100000D01*
X110000Y60000D02*X120000Y50000D01*
X100000D02*X110000Y60000D01*
X90000Y20000D02*X190000D01*
X200000Y30000D01*
X225000D02*X215000Y40000D01*
X210000Y55000D02*X215000Y50000D01*
Y40000D01*
X220000Y20000D02*X210000Y30000D01*
X230000Y20000D02*X220000D01*
X260000Y30000D02*X255000D01*
X250000Y35000D01*
G54D12*X240000Y55000D02*X225000Y40000D01*
G54D11*X250000Y35000D02*Y40000D01*
X245000Y45000D02*X250000Y40000D01*
G54D12*X245000Y55000D02*X260000Y40000D01*
X245000Y55000D02*X240000D01*
G54D11*X245000Y45000D02*X240000D01*
X235000Y40000D01*
Y25000D01*
X230000Y20000D01*
G54D13*G36*
X187250Y22750D02*Y17250D01*
X192750D01*
Y22750D01*
X187250D01*
G37*
G54D14*X180000Y20000D03*
X190000Y50000D03*
G54D13*G36*
X177250Y62750D02*Y57250D01*
X182750D01*
Y62750D01*
X177250D01*
G37*
G36*
X221400Y23600D02*Y16400D01*
X228600D01*
Y23600D01*
X221400D01*
G37*
G54D15*X225000Y30000D03*
Y40000D03*
G54D13*G36*
X257000Y33000D02*Y27000D01*
X263000D01*
Y33000D01*
X257000D01*
G37*
G54D16*X260000Y40000D03*
G54D13*G36*
X202000Y58000D02*Y52000D01*
X208000D01*
Y58000D01*
X202000D01*
G37*
G54D16*X205000Y45000D03*
G54D13*G36*
X239500Y58000D02*Y52000D01*
X245500D01*
Y58000D01*
X239500D01*
G37*
G54D16*X242500Y45000D03*
G54D13*G36*
X77000Y33000D02*Y27000D01*
X83000D01*
Y33000D01*
X77000D01*
G37*
G54D16*X80000Y40000D03*
G54D14*X100000Y50000D03*
G54D13*G36*
X27000Y33000D02*Y27000D01*
X33000D01*
Y33000D01*
X27000D01*
G37*
G54D16*X30000Y40000D03*
G54D14*X160000D03*
G54D13*G36*
X147500Y32500D02*Y27500D01*
X152500D01*
Y32500D01*
X147500D01*
G37*
G36*
X97250Y22750D02*Y17250D01*
X102750D01*
Y22750D01*
X97250D01*
G37*
G36*
X117250Y42750D02*Y37250D01*
X122750D01*
Y42750D01*
X117250D01*
G37*
G36*
X107500Y52500D02*Y47500D01*
X112500D01*
Y52500D01*
X107500D01*
G37*
G54D17*X110000Y20000D03*
X120000Y30000D03*
G54D18*G54D19*G54D20*G54D18*G54D20*G54D18*G54D20*G54D18*G54D21*G54D18*G54D21*M02*
