M48
INCH
T34C0.038
T33C0.042
T32C0.020
T31C0.030
%
T32
X015000Y003000
X011000Y005000
X011000Y002000
X012000Y003000
T31
X016000Y004000
X019000Y002000
X020000Y002000
X018000Y002000
X019000Y005000
X020000Y005000
X024000Y005000
X018000Y006000
X024000Y002000
X010000Y002000
X010000Y005000
X012000Y004000
T34
X026000Y003000
X026000Y004000
X008000Y003000
X008000Y004000
X003000Y003000
X003000Y004000
T33
X022000Y002000
X022000Y003000
X022000Y004000
M30
