G04 start of page 3 for group 1 idx 1 *
G04 Title: (unknown), solder *
G04 Creator: pcb 20110918 *
G04 CreationDate: Sat 01 Jun 2013 09:41:12 PM GMT UTC *
G04 For: commonadmin *
G04 Format: Gerber/RS-274X *
G04 PCB-Dimensions: 600000 500000 *
G04 PCB-Coordinate-Origin: lower left *
%MOIN*%
%FSLAX25Y25*%
%LNBOTTOM*%
%ADD29C,0.0420*%
%ADD28C,0.0380*%
%ADD27C,0.0200*%
%ADD26C,0.0300*%
%ADD25C,0.0720*%
%ADD24C,0.0500*%
%ADD23C,0.0600*%
%ADD22C,0.0550*%
%ADD21C,0.0001*%
G54D21*G36*
X147250Y22750D02*Y17250D01*
X152750D01*
Y22750D01*
X147250D01*
G37*
G54D22*X150000Y60000D03*
G54D21*G36*
X137500Y52500D02*Y47500D01*
X142500D01*
Y52500D01*
X137500D01*
G37*
G54D22*X140000Y30000D03*
G54D21*G36*
X77000Y33000D02*Y27000D01*
X83000D01*
Y33000D01*
X77000D01*
G37*
G54D23*X80000Y40000D03*
G54D21*G36*
X27000Y33000D02*Y27000D01*
X33000D01*
Y33000D01*
X27000D01*
G37*
G54D23*X30000Y40000D03*
G54D24*X100000Y50000D03*
G54D21*G36*
X97250Y32750D02*Y27250D01*
X102750D01*
Y32750D01*
X97250D01*
G37*
G36*
X186400Y23600D02*Y16400D01*
X193600D01*
Y23600D01*
X186400D01*
G37*
G36*
X227000Y33000D02*Y27000D01*
X233000D01*
Y33000D01*
X227000D01*
G37*
G54D23*X230000Y40000D03*
G54D21*G36*
X207250Y22750D02*Y17250D01*
X212750D01*
Y22750D01*
X207250D01*
G37*
G54D22*X210000Y60000D03*
G54D25*X190000Y30000D03*
Y40000D03*
G54D21*G36*
X167250Y22750D02*Y17250D01*
X172750D01*
Y22750D01*
X167250D01*
G37*
G54D22*X170000Y60000D03*
G54D26*G54D27*G54D26*G54D28*G54D27*G54D26*G54D29*G54D28*G54D26*G54D29*G54D26*M02*
