G04 start of page 6 for group -4063 idx -4063 *
G04 Title: (unknown), componentmask *
G04 Creator: pcb 20110918 *
G04 CreationDate: Sun 02 Jun 2013 04:31:48 PM GMT UTC *
G04 For: commonadmin *
G04 Format: Gerber/RS-274X *
G04 PCB-Dimensions: 600000 500000 *
G04 PCB-Coordinate-Origin: lower left *
%MOIN*%
%FSLAX25Y25*%
%LNTOPMASK*%
%ADD39C,0.0560*%
%ADD38C,0.0660*%
%ADD37C,0.0780*%
%ADD36C,0.0001*%
%ADD35C,0.0610*%
G54D35*X160000Y40000D03*
G54D36*G36*
X147200Y32800D02*Y27200D01*
X152800D01*
Y32800D01*
X147200D01*
G37*
G36*
X186950Y23050D02*Y16950D01*
X193050D01*
Y23050D01*
X186950D01*
G37*
G36*
X196950D02*Y16950D01*
X203050D01*
Y23050D01*
X196950D01*
G37*
G54D35*X180000Y20000D03*
X190000Y50000D03*
X200000D03*
X240000D03*
G54D36*G36*
X176950Y63050D02*Y56950D01*
X183050D01*
Y63050D01*
X176950D01*
G37*
G36*
X216100Y23900D02*Y16100D01*
X223900D01*
Y23900D01*
X216100D01*
G37*
G54D37*X220000Y30000D03*
Y40000D03*
G54D36*G36*
X236950Y23050D02*Y16950D01*
X243050D01*
Y23050D01*
X236950D01*
G37*
G36*
X256700Y33300D02*Y26700D01*
X263300D01*
Y33300D01*
X256700D01*
G37*
G54D38*X260000Y40000D03*
G54D36*G36*
X76700Y33300D02*Y26700D01*
X83300D01*
Y33300D01*
X76700D01*
G37*
G54D38*X80000Y40000D03*
G54D36*G36*
X26700Y33300D02*Y26700D01*
X33300D01*
Y33300D01*
X26700D01*
G37*
G54D38*X30000Y40000D03*
G54D36*G36*
X96950Y23050D02*Y16950D01*
X103050D01*
Y23050D01*
X96950D01*
G37*
G54D35*X100000Y50000D03*
G54D36*G36*
X116950Y43050D02*Y36950D01*
X123050D01*
Y43050D01*
X116950D01*
G37*
G36*
X107200Y52800D02*Y47200D01*
X112800D01*
Y52800D01*
X107200D01*
G37*
G54D39*X110000Y20000D03*
X120000Y30000D03*
M02*
