M48
INCH
T35C0.020
T34C0.038
T33C0.042
T32C0.030
%
T35
X015000Y003000
X011000Y005000
X011000Y002000
X012000Y003000
T32
X019000Y002000
X018000Y002000
X019000Y005000
X018000Y006000
X020500Y005500
X020500Y004500
X024250Y005500
X024250Y004500
X010000Y005000
X016000Y004000
X010000Y002000
X012000Y004000
T34
X026000Y003000
X026000Y004000
X008000Y003000
X008000Y004000
X003000Y003000
X003000Y004000
T33
X022500Y002000
X022500Y003000
X022500Y004000
M30
