G04 start of page 3 for group 1 idx 1 *
G04 Title: (unknown), solder *
G04 Creator: pcb 20110918 *
G04 CreationDate: Sun 02 Jun 2013 04:31:48 PM GMT UTC *
G04 For: commonadmin *
G04 Format: Gerber/RS-274X *
G04 PCB-Dimensions: 600000 500000 *
G04 PCB-Coordinate-Origin: lower left *
%MOIN*%
%FSLAX25Y25*%
%LNBOTTOM*%
%ADD29C,0.0380*%
%ADD28C,0.0420*%
%ADD27C,0.0200*%
%ADD26C,0.0300*%
%ADD25C,0.0500*%
%ADD24C,0.0600*%
%ADD23C,0.0720*%
%ADD22C,0.0001*%
%ADD21C,0.0550*%
G54D21*X160000Y40000D03*
G54D22*G36*
X147500Y32500D02*Y27500D01*
X152500D01*
Y32500D01*
X147500D01*
G37*
G36*
X187250Y22750D02*Y17250D01*
X192750D01*
Y22750D01*
X187250D01*
G37*
G36*
X197250D02*Y17250D01*
X202750D01*
Y22750D01*
X197250D01*
G37*
G54D21*X180000Y20000D03*
X190000Y50000D03*
X200000D03*
X240000D03*
G54D22*G36*
X177250Y62750D02*Y57250D01*
X182750D01*
Y62750D01*
X177250D01*
G37*
G36*
X216400Y23600D02*Y16400D01*
X223600D01*
Y23600D01*
X216400D01*
G37*
G54D23*X220000Y30000D03*
Y40000D03*
G54D22*G36*
X237250Y22750D02*Y17250D01*
X242750D01*
Y22750D01*
X237250D01*
G37*
G36*
X257000Y33000D02*Y27000D01*
X263000D01*
Y33000D01*
X257000D01*
G37*
G54D24*X260000Y40000D03*
G54D22*G36*
X77000Y33000D02*Y27000D01*
X83000D01*
Y33000D01*
X77000D01*
G37*
G54D24*X80000Y40000D03*
G54D22*G36*
X27000Y33000D02*Y27000D01*
X33000D01*
Y33000D01*
X27000D01*
G37*
G54D24*X30000Y40000D03*
G54D22*G36*
X97250Y22750D02*Y17250D01*
X102750D01*
Y22750D01*
X97250D01*
G37*
G54D21*X100000Y50000D03*
G54D22*G36*
X117250Y42750D02*Y37250D01*
X122750D01*
Y42750D01*
X117250D01*
G37*
G36*
X107500Y52500D02*Y47500D01*
X112500D01*
Y52500D01*
X107500D01*
G37*
G54D25*X110000Y20000D03*
X120000Y30000D03*
G54D26*G54D27*G54D26*G54D28*G54D26*G54D29*G54D26*G54D27*M02*
