G04 start of page 8 for group -4079 idx -4079 *
G04 Title: (unknown), topsilk *
G04 Creator: pcb 20110918 *
G04 CreationDate: Mon 17 Jun 2013 02:05:19 PM GMT UTC *
G04 For: commonadmin *
G04 Format: Gerber/RS-274X *
G04 PCB-Dimensions: 600000 500000 *
G04 PCB-Coordinate-Origin: lower left *
%MOIN*%
%FSLAX25Y25*%
%LNTOPSILK*%
%ADD46C,0.0100*%
G54D46*X120000Y40000D02*X130000D01*
X150000D02*X160000D01*
X130000Y43300D02*X150000D01*
Y36700D01*
X130000D01*
Y43300D01*
X190000Y27500D02*Y20000D01*
Y50000D02*Y42500D01*
X187500D02*Y27500D01*
Y42500D02*X192500D01*
Y27500D01*
X187500D02*X192500D01*
X232000Y37000D02*Y23000D01*
X232071Y37071D02*G75*G03X232071Y22929I-7071J-7071D01*G01*
X140000Y30000D02*X150000D01*
X120000D02*X130000D01*
X140000D02*X130000Y25000D01*
Y35000D02*Y25000D01*
Y35000D02*X140000Y30000D01*
Y35000D02*Y25000D01*
X25000D02*X35000D01*
Y45000D02*Y25000D01*
X25000Y45000D02*X35000D01*
X25000D02*Y25000D01*
X35000Y35000D02*Y25000D01*
X25000Y35000D02*X35000D01*
X75000Y25000D02*X85000D01*
Y45000D02*Y25000D01*
X75000Y45000D02*X85000D01*
X75000D02*Y25000D01*
X85000Y35000D02*Y25000D01*
X75000Y35000D02*X85000D01*
X100000Y27500D02*Y20000D01*
Y50000D02*Y42500D01*
X97500D02*Y27500D01*
Y42500D02*X102500D01*
Y27500D01*
X97500D02*X102500D01*
X110000Y50000D02*Y40000D01*
Y30000D02*Y20000D01*
Y40000D02*X115000Y30000D01*
X105000D02*X115000D01*
X105000D02*X110000Y40000D01*
X105000D02*X115000D01*
X180000Y60000D02*Y50000D01*
Y30000D02*Y20000D01*
X183300Y50000D02*Y30000D01*
X176700D02*X183300D01*
X176700Y50000D02*Y30000D01*
Y50000D02*X183300D01*
X255000Y25000D02*X265000D01*
Y45000D02*Y25000D01*
X255000Y45000D02*X265000D01*
X255000D02*Y25000D01*
X265000Y35000D02*Y25000D01*
X255000Y35000D02*X265000D01*
X205000Y66000D02*Y62000D01*
X203000Y64000D02*X207000D01*
X205000Y38000D02*Y34000D01*
Y60000D02*G75*G03X205000Y60000I0J-10000D01*G01*
X242500Y66000D02*Y62000D01*
X240500Y64000D02*X244500D01*
X242500Y38000D02*Y34000D01*
Y60000D02*G75*G03X242500Y60000I0J-10000D01*G01*
X152700Y29700D02*X154000D01*
X152000Y30400D02*X152700Y29700D01*
X152000Y33000D02*Y30400D01*
Y33000D02*X152700Y33700D01*
X154000D01*
X155200Y33200D02*X155700Y33700D01*
X157200D01*
X157700Y33200D01*
Y32200D01*
X155200Y29700D02*X157700Y32200D01*
X155200Y29700D02*X157700D01*
X195500Y46500D02*Y44500D01*
Y46500D02*X196000Y47000D01*
X197000D01*
X197500Y46500D02*X197000Y47000D01*
X197500Y46500D02*Y45000D01*
X195500D02*X199500D01*
X197500Y45800D02*X199500Y47000D01*
X196300Y48200D02*X195500Y49000D01*
X199500D01*
Y49700D02*Y48200D01*
X233500Y39000D02*X236500D01*
X237000Y38500D01*
Y37500D01*
X236500Y37000D01*
X234000D02*X236500D01*
X233000Y38000D02*X234000Y37000D01*
X233000Y38500D02*Y38000D01*
X233500Y39000D02*X233000Y38500D01*
X234500Y38000D02*X233000Y37000D01*
X236200Y35800D02*X237000Y35000D01*
X233000D02*X237000D01*
X233000Y35800D02*Y34300D01*
X235500Y49800D02*Y48500D01*
X236200Y50500D02*X235500Y49800D01*
X236200Y50500D02*X238800D01*
X239500Y49800D01*
Y48500D01*
Y47300D02*Y45300D01*
X237500Y47300D02*X239500D01*
X237500D02*X238000Y46800D01*
Y45800D01*
X237500Y45300D01*
X236000D02*X237500D01*
X235500Y45800D02*X236000Y45300D01*
X235500Y46800D02*Y45800D01*
X236000Y47300D02*X235500Y46800D01*
X25700Y46000D02*X27000D01*
X25000Y46700D02*X25700Y46000D01*
X25000Y49300D02*Y46700D01*
Y49300D02*X25700Y50000D01*
X27000D01*
X28200Y49500D02*Y46500D01*
Y49500D02*X28700Y50000D01*
X29700D01*
X30200Y49500D01*
Y46500D01*
X29700Y46000D02*X30200Y46500D01*
X28700Y46000D02*X29700D01*
X28200Y46500D02*X28700Y46000D01*
X31400Y50000D02*Y46000D01*
Y50000D02*X33900Y46000D01*
Y50000D02*Y46000D01*
X35100Y50000D02*Y46000D01*
Y50000D02*X37600Y46000D01*
Y50000D02*Y46000D01*
X38800Y49200D02*X39600Y50000D01*
Y46000D01*
X38800D02*X40300D01*
X75700D02*X77000D01*
X75000Y46700D02*X75700Y46000D01*
X75000Y49300D02*Y46700D01*
Y49300D02*X75700Y50000D01*
X77000D01*
X78200Y49500D02*Y46500D01*
Y49500D02*X78700Y50000D01*
X79700D01*
X80200Y49500D01*
Y46500D01*
X79700Y46000D02*X80200Y46500D01*
X78700Y46000D02*X79700D01*
X78200Y46500D02*X78700Y46000D01*
X81400Y50000D02*Y46000D01*
Y50000D02*X83900Y46000D01*
Y50000D02*Y46000D01*
X85100Y50000D02*Y46000D01*
Y50000D02*X87600Y46000D01*
Y50000D02*Y46000D01*
X88800Y49500D02*X89300Y50000D01*
X90800D01*
X91300Y49500D01*
Y48500D01*
X88800Y46000D02*X91300Y48500D01*
X88800Y46000D02*X91300D01*
X109500Y46500D02*Y45200D01*
X108800Y44500D02*X109500Y45200D01*
X106200Y44500D02*X108800D01*
X106200D02*X105500Y45200D01*
Y46500D02*Y45200D01*
X106300Y47700D02*X105500Y48500D01*
X109500D01*
Y49200D02*Y47700D01*
X110000Y27500D02*X114000D01*
Y26200D02*X113300Y25500D01*
X110700D02*X113300D01*
X110000Y26200D02*X110700Y25500D01*
X110000Y28000D02*Y26200D01*
X114000Y28000D02*Y26200D01*
X113200Y24300D02*X114000Y23500D01*
X110000D02*X114000D01*
X110000Y24300D02*Y22800D01*
X127500Y30000D02*Y26000D01*
X126200D02*X125500Y26700D01*
Y29300D02*Y26700D01*
X126200Y30000D02*X125500Y29300D01*
X126200Y30000D02*X128000D01*
X126200Y26000D02*X128000D01*
X124300Y26500D02*X123800Y26000D01*
X122300D02*X123800D01*
X122300D02*X121800Y26500D01*
Y27500D02*Y26500D01*
X124300Y30000D02*X121800Y27500D01*
Y30000D02*X124300D01*
X169700Y27300D02*Y26000D01*
X170400Y28000D02*X169700Y27300D01*
X170400Y28000D02*X173000D01*
X173700Y27300D01*
Y26000D01*
X173200Y24800D02*X173700Y24300D01*
Y23300D01*
X173200Y22800D01*
X169700Y23300D02*X170200Y22800D01*
X169700Y24300D02*Y23300D01*
X170200Y24800D02*X169700Y24300D01*
X171900D02*Y23300D01*
X172400Y22800D02*X173200D01*
X170200D02*X171400D01*
X171900Y23300D01*
X172400Y22800D02*X171900Y23300D01*
X255700Y46000D02*X257000D01*
X255000Y46700D02*X255700Y46000D01*
X255000Y49300D02*Y46700D01*
Y49300D02*X255700Y50000D01*
X257000D01*
X258200Y49500D02*Y46500D01*
Y49500D02*X258700Y50000D01*
X259700D01*
X260200Y49500D01*
Y46500D01*
X259700Y46000D02*X260200Y46500D01*
X258700Y46000D02*X259700D01*
X258200Y46500D02*X258700Y46000D01*
X261400Y50000D02*Y46000D01*
Y50000D02*X263900Y46000D01*
Y50000D02*Y46000D01*
X265100Y50000D02*Y46000D01*
Y50000D02*X267600Y46000D01*
Y50000D02*Y46000D01*
X268800Y49500D02*X269300Y50000D01*
X270300D01*
X270800Y49500D01*
X270300Y46000D02*X270800Y46500D01*
X269300Y46000D02*X270300D01*
X268800Y46500D02*X269300Y46000D01*
Y48200D02*X270300D01*
X270800Y49500D02*Y48700D01*
Y47700D02*Y46500D01*
Y47700D02*X270300Y48200D01*
X270800Y48700D02*X270300Y48200D01*
X198000Y49800D02*Y48500D01*
X198700Y50500D02*X198000Y49800D01*
X198700Y50500D02*X201300D01*
X202000Y49800D01*
Y48500D01*
X199500Y47300D02*X202000Y45300D01*
X199500Y47300D02*Y44800D01*
X198000Y45300D02*X202000D01*
M02*
